<?xml version="1.0" encoding="us-ascii" standalone="no"?><svg xmlns="http://www.w3.org/2000/svg" xmlns:xlink="http://www.w3.org/1999/xlink" contentStyleType="text/css" height="1326px" preserveAspectRatio="none" style="width:220px;height:1326px;background:#FFFFFF;" version="1.1" viewBox="0 0 220 1326" width="220px" zoomAndPan="magnify"><defs/><g><ellipse cx="110" cy="16" fill="#222222" rx="10" ry="10" style="stroke:#222222;stroke-width:1.0;"/><g id="pipewiresrc"><rect fill="#F1F1F1" height="50.2656" rx="12.5" ry="12.5" style="stroke:#181818;stroke-width:0.5;" width="197" x="11.5" y="86"/><line style="stroke:#181818;stroke-width:0.5;" x1="11.5" x2="208.5" y1="112.2969" y2="112.2969"/><text fill="#000000" font-family="sans-serif" font-size="14" lengthAdjust="spacing" textLength="79" x="70.5" y="103.9951">pipewiresrc</text><text fill="#000000" font-family="sans-serif" font-size="12" lengthAdjust="spacing" textLength="177" x="16.5" y="128.4355">Capture video from PipeWire</text></g><g id="videorate"><rect fill="#F1F1F1" height="50.2656" rx="12.5" ry="12.5" style="stroke:#181818;stroke-width:0.5;" width="179" x="20.5" y="196.26"/><line style="stroke:#181818;stroke-width:0.5;" x1="20.5" x2="199.5" y1="222.5569" y2="222.5569"/><text fill="#000000" font-family="sans-serif" font-size="14" lengthAdjust="spacing" textLength="64" x="78" y="214.2551">videorate</text><text fill="#000000" font-family="sans-serif" font-size="12" lengthAdjust="spacing" textLength="159" x="25.5" y="238.6955">Make framerate constant</text></g><g id="videoconvert"><rect fill="#F1F1F1" height="50.2656" rx="12.5" ry="12.5" style="stroke:#181818;stroke-width:0.5;" width="150" x="35" y="306.53"/><line style="stroke:#181818;stroke-width:0.5;" x1="35" x2="185" y1="332.8269" y2="332.8269"/><text fill="#000000" font-family="sans-serif" font-size="14" lengthAdjust="spacing" textLength="89" x="65.5" y="324.5251">videoconvert</text><text fill="#000000" font-family="sans-serif" font-size="12" lengthAdjust="spacing" textLength="130" x="40" y="348.9655">Convert video format</text></g><g id="timeoverlay"><rect fill="#F1F1F1" height="50.2656" rx="12.5" ry="12.5" style="stroke:#181818;stroke-width:0.5;" width="144" x="38" y="416.79"/><line style="stroke:#181818;stroke-width:0.5;" x1="38" x2="182" y1="443.0869" y2="443.0869"/><text fill="#000000" font-family="sans-serif" font-size="14" lengthAdjust="spacing" textLength="78" x="71" y="434.7851">timeoverlay</text><text fill="#000000" font-family="sans-serif" font-size="12" lengthAdjust="spacing" textLength="124" x="43" y="459.2255">Debug time in video</text></g><g id="vaapipostproc"><rect fill="#F1F1F1" height="50.2656" rx="12.5" ry="12.5" style="stroke:#181818;stroke-width:0.5;" width="206" x="7" y="527.06"/><line style="stroke:#181818;stroke-width:0.5;" x1="7" x2="213" y1="553.3569" y2="553.3569"/><text fill="#000000" font-family="sans-serif" font-size="14" lengthAdjust="spacing" textLength="97" x="61.5" y="545.0551">vaapipostproc</text><text fill="#000000" font-family="sans-serif" font-size="12" lengthAdjust="spacing" textLength="186" x="12" y="569.4955">Convert video to VAAPI format</text></g><g id="vaapih264enc"><rect fill="#F1F1F1" height="50.2656" rx="12.5" ry="12.5" style="stroke:#181818;stroke-width:0.5;" width="183" x="18.5" y="637.33"/><line style="stroke:#181818;stroke-width:0.5;" x1="18.5" x2="201.5" y1="663.6269" y2="663.6269"/><text fill="#000000" font-family="sans-serif" font-size="14" lengthAdjust="spacing" textLength="97" x="61.5" y="655.3251">vaapih264enc</text><text fill="#000000" font-family="sans-serif" font-size="12" lengthAdjust="spacing" textLength="163" x="23.5" y="679.7655">Hardware H.264 encoding</text></g><g id="h264parse"><rect fill="#F1F1F1" height="50.2656" rx="12.5" ry="12.5" style="stroke:#181818;stroke-width:0.5;" width="145" x="37.5" y="747.59"/><line style="stroke:#181818;stroke-width:0.5;" x1="37.5" x2="182.5" y1="773.8869" y2="773.8869"/><text fill="#000000" font-family="sans-serif" font-size="14" lengthAdjust="spacing" textLength="75" x="72.5" y="765.5851">h264parse</text><text fill="#000000" font-family="sans-serif" font-size="12" lengthAdjust="spacing" textLength="125" x="42.5" y="790.0255">Parse H.264 stream</text></g><g id="mpegtsmux"><rect fill="#F1F1F1" height="50.2656" rx="12.5" ry="12.5" style="stroke:#181818;stroke-width:0.5;" width="130" x="45" y="857.86"/><line style="stroke:#181818;stroke-width:0.5;" x1="45" x2="175" y1="884.1569" y2="884.1569"/><text fill="#000000" font-family="sans-serif" font-size="14" lengthAdjust="spacing" textLength="82" x="69" y="875.8551">mpegtsmux</text><text fill="#000000" font-family="sans-serif" font-size="12" lengthAdjust="spacing" textLength="110" x="50" y="900.2955">Mux into MPEG-TS</text></g><g id="rtmp2tpay"><rect fill="#F1F1F1" height="50.2656" rx="12.5" ry="12.5" style="stroke:#181818;stroke-width:0.5;" width="167" x="26.5" y="968.12"/><line style="stroke:#181818;stroke-width:0.5;" x1="26.5" x2="193.5" y1="994.4169" y2="994.4169"/><text fill="#000000" font-family="sans-serif" font-size="14" lengthAdjust="spacing" textLength="70" x="75" y="986.1151">rtmp2tpay</text><text fill="#000000" font-family="sans-serif" font-size="12" lengthAdjust="spacing" textLength="147" x="31.5" y="1010.5555">RTP payloader for RTMP</text></g><g id="queue"><rect fill="#F1F1F1" height="50.2656" rx="12.5" ry="12.5" style="stroke:#181818;stroke-width:0.5;" width="120" x="50" y="1078.39"/><line style="stroke:#181818;stroke-width:0.5;" x1="50" x2="170" y1="1104.6869" y2="1104.6869"/><text fill="#000000" font-family="sans-serif" font-size="14" lengthAdjust="spacing" textLength="45" x="87.5" y="1096.3851">queue</text><text fill="#000000" font-family="sans-serif" font-size="12" lengthAdjust="spacing" textLength="100" x="55" y="1120.8255">Buffering queue</text></g><g id="appsink"><rect fill="#F1F1F1" height="50.2656" rx="12.5" ry="12.5" style="stroke:#181818;stroke-width:0.5;" width="182" x="19" y="1188.65"/><line style="stroke:#181818;stroke-width:0.5;" x1="19" x2="201" y1="1214.9469" y2="1214.9469"/><text fill="#000000" font-family="sans-serif" font-size="14" lengthAdjust="spacing" textLength="54" x="83" y="1206.6451">appsink</text><text fill="#000000" font-family="sans-serif" font-size="12" lengthAdjust="spacing" textLength="162" x="24" y="1231.0855">Output to application sink</text></g><ellipse cx="110" cy="1309.92" fill="none" rx="11" ry="11" style="stroke:#222222;stroke-width:1.0;"/><ellipse cx="110" cy="1309.92" fill="#222222" rx="6" ry="6" style="stroke:#222222;stroke-width:1.0;"/><!--link *start* to pipewiresrc--><g id="link_*start*_pipewiresrc"><path d="M110,26.27 C110,39.98 110,60.14 110,79.61 " fill="none" id="*start*-to-pipewiresrc" style="stroke:#181818;stroke-width:1.0;"/><polygon fill="#181818" points="110,85.61,114,76.61,110,80.61,106,76.61,110,85.61" style="stroke:#181818;stroke-width:1.0;"/></g><!--link pipewiresrc to videorate--><g id="link_pipewiresrc_videorate"><path d="M110,136.7 C110,154.42 110,172.23 110,189.93 " fill="none" id="pipewiresrc-to-videorate" style="stroke:#181818;stroke-width:1.0;"/><polygon fill="#181818" points="110,195.93,114,186.93,110,190.93,106,186.93,110,195.93" style="stroke:#181818;stroke-width:1.0;"/></g><!--link videorate to videoconvert--><g id="link_videorate_videoconvert"><path d="M110,246.96 C110,264.68 110,282.5 110,300.19 " fill="none" id="videorate-to-videoconvert" style="stroke:#181818;stroke-width:1.0;"/><polygon fill="#181818" points="110,306.19,114,297.19,110,301.19,106,297.19,110,306.19" style="stroke:#181818;stroke-width:1.0;"/></g><!--link videoconvert to timeoverlay--><g id="link_videoconvert_timeoverlay"><path d="M110,357.23 C110,374.95 110,392.76 110,410.46 " fill="none" id="videoconvert-to-timeoverlay" style="stroke:#181818;stroke-width:1.0;"/><polygon fill="#181818" points="110,416.46,114,407.46,110,411.46,106,407.46,110,416.46" style="stroke:#181818;stroke-width:1.0;"/></g><!--link timeoverlay to vaapipostproc--><g id="link_timeoverlay_vaapipostproc"><path d="M110,467.49 C110,485.21 110,503.03 110,520.72 " fill="none" id="timeoverlay-to-vaapipostproc" style="stroke:#181818;stroke-width:1.0;"/><polygon fill="#181818" points="110,526.72,114,517.72,110,521.72,106,517.72,110,526.72" style="stroke:#181818;stroke-width:1.0;"/></g><!--link vaapipostproc to vaapih264enc--><g id="link_vaapipostproc_vaapih264enc"><path d="M110,577.76 C110,595.48 110,613.29 110,630.99 " fill="none" id="vaapipostproc-to-vaapih264enc" style="stroke:#181818;stroke-width:1.0;"/><polygon fill="#181818" points="110,636.99,114,627.99,110,631.99,106,627.99,110,636.99" style="stroke:#181818;stroke-width:1.0;"/></g><!--link vaapih264enc to h264parse--><g id="link_vaapih264enc_h264parse"><path d="M110,688.03 C110,705.74 110,723.56 110,741.25 " fill="none" id="vaapih264enc-to-h264parse" style="stroke:#181818;stroke-width:1.0;"/><polygon fill="#181818" points="110,747.25,114,738.25,110,742.25,106,738.25,110,747.25" style="stroke:#181818;stroke-width:1.0;"/></g><!--link h264parse to mpegtsmux--><g id="link_h264parse_mpegtsmux"><path d="M110,798.29 C110,816.01 110,833.82 110,851.52 " fill="none" id="h264parse-to-mpegtsmux" style="stroke:#181818;stroke-width:1.0;"/><polygon fill="#181818" points="110,857.52,114,848.52,110,852.52,106,848.52,110,857.52" style="stroke:#181818;stroke-width:1.0;"/></g><!--link mpegtsmux to rtmp2tpay--><g id="link_mpegtsmux_rtmp2tpay"><path d="M110,908.56 C110,926.28 110,944.09 110,961.79 " fill="none" id="mpegtsmux-to-rtmp2tpay" style="stroke:#181818;stroke-width:1.0;"/><polygon fill="#181818" points="110,967.79,114,958.79,110,962.79,106,958.79,110,967.79" style="stroke:#181818;stroke-width:1.0;"/></g><!--link rtmp2tpay to queue--><g id="link_rtmp2tpay_queue"><path d="M110,1018.82 C110,1036.54 110,1054.36 110,1072.05 " fill="none" id="rtmp2tpay-to-queue" style="stroke:#181818;stroke-width:1.0;"/><polygon fill="#181818" points="110,1078.05,114,1069.05,110,1073.05,106,1069.05,110,1078.05" style="stroke:#181818;stroke-width:1.0;"/></g><!--link queue to appsink--><g id="link_queue_appsink"><path d="M110,1129.09 C110,1146.81 110,1164.62 110,1182.32 " fill="none" id="queue-to-appsink" style="stroke:#181818;stroke-width:1.0;"/><polygon fill="#181818" points="110,1188.32,114,1179.32,110,1183.32,106,1179.32,110,1188.32" style="stroke:#181818;stroke-width:1.0;"/></g><!--link appsink to *end*--><g id="link_appsink_*end*"><path d="M110,1239.03 C110,1258.42 110,1278.64 110,1292.81 " fill="none" id="appsink-to-*end*" style="stroke:#181818;stroke-width:1.0;"/><polygon fill="#181818" points="110,1298.81,114,1289.81,110,1293.81,106,1289.81,110,1298.81" style="stroke:#181818;stroke-width:1.0;"/></g><!--SRC=[NL0xJyD03DxlLtYkL8OACTo0L1wY31KHL31K7KpYb5Dx3-xHbd-FSmt9bINvxEznjjUJ3Kodj-2KewFo57mj2YpX7brCdk2W6hBGUgkXOlw3-LAOGxB6OoGn80bBt17xK5DNGsrDY6ZYA1cjp1t8zrHVy0Hdy3U1zHel9JaWAasMgpt-Y09BUA3FjCqqA7CEAGNdrn5v5nkYyxOM5zN_zwE5z_cyUXu6ASLZsDVivffCdzKN4XRecoFoDHTNt0BksKQPxOKgPtJOeGya1YIXwdwzDKHFg4SskxIZRGmwdSI0-Fxfn8lpsClgyMcwUXkvxF5HkrbqVBK1INXTLS1WRx4XtstAdMKrAhBpEr4YaRyIxbBRakTTodQMeND1cPte_n9UKdGfTeVarbxL69KrK6goRptP_080]--></g></svg>